<svg width="86" height="85" viewBox="0 0 86 85" fill="none" xmlns="http://www.w3.org/2000/svg">
<g filter="url(#filter0_d_3891_23752)">
<rect x="13.25" y="10" width="56" height="56" rx="5.2" fill="white" shape-rendering="crispEdges"/>
<g clip-path="url(#clip0_3891_23752)">
<g clip-path="url(#clip1_3891_23752)">
<g clip-path="url(#clip2_3891_23752)">
<path d="M42.1659 36.9193C44.5935 36.9193 46.5614 34.9514 46.5614 32.5239C46.5614 30.0963 44.5935 28.1284 42.1659 28.1284C39.7384 28.1284 37.7705 30.0963 37.7705 32.5239C37.7705 34.9514 39.7384 36.9193 42.1659 36.9193Z" fill="url(#paint0_linear_3891_23752)"/>
<path d="M45.0887 33.3717C47.1521 33.3717 48.8248 31.6989 48.8248 29.6355C48.8248 27.5721 47.1521 25.8994 45.0887 25.8994C43.0253 25.8994 41.3525 27.5721 41.3525 29.6355C41.3525 31.6989 43.0253 33.3717 45.0887 33.3717Z" fill="url(#paint1_linear_3891_23752)"/>
<path d="M42.169 28.0954C41.9806 28.0954 41.8236 28.0954 41.6352 28.0954C41.4469 28.5349 41.3213 29.0686 41.3213 29.571C41.3213 31.6117 42.9853 33.3071 45.0574 33.3071C45.5911 33.3071 46.0935 33.1815 46.533 32.9931C46.533 32.8362 46.533 32.6478 46.533 32.4594C46.533 30.0105 44.5551 28.064 42.1376 28.064L42.169 28.0954Z" fill="url(#paint2_linear_3891_23752)"/>
</g>
<path d="M50.9851 40.3771C50.5314 39.4848 49.4408 39.1289 48.5479 39.5821L43.1309 42.3346H36.4355V44.1471H47.5655L50.1894 42.8137C51.0824 42.3606 51.4382 41.2695 50.9851 40.3771Z" fill="url(#paint3_linear_3891_23752)"/>
<path d="M32.7913 37.4995H27.958V48.9787H32.7913V37.4995Z" fill="url(#paint4_linear_3891_23752)"/>
<path d="M32.792 38.71H30.9795V47.7725H32.792V38.71Z" fill="#FF8B01"/>
<path d="M54.8821 40.5238L54.8773 40.5153C54.4018 39.664 53.3264 39.3595 52.4751 39.835L44.7599 44.1445H37.6253V42.332H43.667C44.6681 42.332 45.4795 41.5206 45.4795 40.5195C45.4795 39.5184 44.6681 38.707 43.667 38.707H32.792V47.7695H44.8753C44.8777 47.7695 44.8802 47.7695 44.8826 47.7695C45.2288 47.804 45.5882 47.7363 45.9151 47.5538L54.2012 42.9259C55.0525 42.4504 55.357 41.375 54.8821 40.5238Z" fill="#00D924"/>
</g>
</g>
</g>
<defs>
<filter id="filter0_d_3891_23752" x="0.929999" y="0.523999" width="84.432" height="84.432" filterUnits="userSpaceOnUse" color-interpolation-filters="sRGB">
<feFlood flood-opacity="0" result="BackgroundImageFix"/>
<feColorMatrix in="SourceAlpha" type="matrix" values="0 0 0 0 0 0 0 0 0 0 0 0 0 0 0 0 0 0 127 0" result="hardAlpha"/>
<feOffset dx="1.896" dy="4.74"/>
<feGaussianBlur stdDeviation="7.108"/>
<feComposite in2="hardAlpha" operator="out"/>
<feColorMatrix type="matrix" values="0 0 0 0 0.0862745 0 0 0 0 0.133333 0 0 0 0 0.2 0 0 0 0.05 0"/>
<feBlend mode="normal" in2="BackgroundImageFix" result="effect1_dropShadow_3891_23752"/>
<feBlend mode="normal" in="SourceGraphic" in2="effect1_dropShadow_3891_23752" result="shape"/>
</filter>
<linearGradient id="paint0_linear_3891_23752" x1="37.7705" y1="32.5239" x2="46.5928" y2="32.5239" gradientUnits="userSpaceOnUse">
<stop stop-color="#FFD748"/>
<stop offset="1" stop-color="#FFC148"/>
</linearGradient>
<linearGradient id="paint1_linear_3891_23752" x1="41.8863" y1="27.7204" x2="48.2597" y2="31.5507" gradientUnits="userSpaceOnUse">
<stop stop-color="#FFD748"/>
<stop offset="1" stop-color="#FFC148"/>
</linearGradient>
<linearGradient id="paint2_linear_3891_23752" x1="41.3527" y1="30.7326" x2="46.5958" y2="30.7326" gradientUnits="userSpaceOnUse">
<stop stop-color="#FFAD00"/>
<stop offset="1" stop-color="#FF7600"/>
</linearGradient>
<linearGradient id="paint3_linear_3891_23752" x1="37.63" y1="39.3853" x2="50.2069" y2="42.5394" gradientUnits="userSpaceOnUse">
<stop stop-color="#00D924"/>
<stop offset="1" stop-color="#00A600"/>
</linearGradient>
<linearGradient id="paint4_linear_3891_23752" x1="27.958" y1="43.2391" x2="32.7913" y2="43.2391" gradientUnits="userSpaceOnUse">
<stop stop-color="#FFCB6A"/>
<stop offset="1" stop-color="#FF9403"/>
</linearGradient>
<clipPath id="clip0_3891_23752">
<rect width="35.6891" height="23.7927" fill="white" transform="translate(23.4053 25.9585)"/>
</clipPath>
<clipPath id="clip1_3891_23752">
<rect width="29" height="29" fill="white" transform="translate(26.75 22.9995)"/>
</clipPath>
<clipPath id="clip2_3891_23752">
<rect width="11.02" height="11.02" fill="white" transform="translate(37.7705 25.8989)"/>
</clipPath>
</defs>
</svg>
