<svg xmlns="http://www.w3.org/2000/svg" width="103" height="69" viewBox="0 0 103 69" fill="none"><g clip-path="url(#clip0_3027_3524)"><g clip-path="url(#clip1_3027_3524)"><path d="M89.6666 0H12.335V58.3739H89.6666V0Z" fill="url(#paint0_linear_3027_3524)"></path><path d="M4.58203 46.7576V58.3738H16.2109V46.7576H4.58203Z" fill="url(#paint1_linear_3027_3524)"></path><path d="M85.6934 46.7576V58.3738H97.3222V46.7576H85.6934Z" fill="#6C19FF"></path><path d="M66.409 46.7576V52.5169H35.4957V46.7576H12.335V58.3738H89.5697V46.7576H66.409Z" fill="#00D924"></path><path d="M97.3224 9.76172H45.1865V68.1356H97.3224V9.76172Z" fill="#FFD948"></path><path d="M89.5699 46.7579V9.76172H45.1865V58.3741H97.3224V46.7579H89.5699Z" fill="url(#paint2_linear_3027_3524)"></path><path d="M89.6668 9.76172H45.1865V17.5709H89.6668V9.76172Z" fill="#FCFE48"></path><path d="M74.1608 15.6185C75.2312 15.6185 76.0989 14.7444 76.0989 13.6662C76.0989 12.5879 75.2312 11.7139 74.1608 11.7139C73.0904 11.7139 72.2227 12.5879 72.2227 13.6662C72.2227 14.7444 73.0904 15.6185 74.1608 15.6185Z" fill="#00D924"></path></g></g><defs><linearGradient id="paint0_linear_3027_3524" x1="12.335" y1="29.1869" x2="89.5697" y2="29.1869" gradientUnits="userSpaceOnUse"><stop stop-color="#00A600"></stop><stop offset="1" stop-color="#00D924"></stop></linearGradient><linearGradient id="paint1_linear_3027_3524" x1="4.58203" y1="52.5169" x2="16.2109" y2="52.5169" gradientUnits="userSpaceOnUse"><stop stop-color="#00A600"></stop><stop offset="1" stop-color="#00D924"></stop></linearGradient><linearGradient id="paint2_linear_3027_3524" x1="45.1865" y1="34.0679" x2="97.3224" y2="34.0679" gradientUnits="userSpaceOnUse"><stop stop-color="#FFD748"></stop><stop offset="1" stop-color="#FCFF48"></stop></linearGradient><clipPath id="clip0_3027_3524"><rect width="102.203" height="68.1354" fill="white" transform="translate(0.796875)"></rect></clipPath><clipPath id="clip1_3027_3524"><rect width="92.7399" height="68.1354" fill="white" transform="translate(4.58203)"></rect></clipPath></defs></svg>