<svg xmlns="http://www.w3.org/2000/svg" width="89" height="84" viewBox="0 0 89 84" fill="none"><g clip-path="url(#clip0_2467_10717)"><path d="M62.4715 83.0179H5.41442C0.27928 83.0179 -4 78.168 -4 72.177V66.7566H53.0571V72.177C53.0571 78.168 57.3363 83.0179 62.4715 83.0179Z" fill="#00D924"></path><path d="M81.3007 0H19.6791C14.2586 0 10.2646 5.42042 10.2646 10.5556V75.03C10.2646 80.1652 14.5439 83.018 19.6791 83.018H62.4719C67.607 83.018 71.8863 80.1652 71.8863 75.03V10.5556C71.8863 5.42042 76.1656 0 81.3007 0Z" fill="url(#paint0_linear_2467_10717)"></path><path d="M24.5283 16.2613H90.9998V10.8408C90.9998 4.84985 86.7205 0 81.5854 0H24.5283V16.2613Z" fill="#00D924"></path><path d="M10.2646 10.8408V16.2613H71.8863V10.8408C71.8863 4.84985 76.1656 0 81.3007 0H19.6791C14.5439 0 10.2646 4.84985 10.2646 10.8408Z" fill="url(#paint1_linear_2467_10717)"></path><path d="M53.0574 72.177V66.7566H10.2646V83.0179H62.4719C57.3367 83.0179 53.0574 78.168 53.0574 72.177Z" fill="url(#paint2_linear_2467_10717)"></path></g><defs><linearGradient id="paint0_linear_2467_10717" x1="10.2646" y1="41.3664" x2="81.3007" y2="41.3664" gradientUnits="userSpaceOnUse"><stop stop-color="#FFAD00"></stop><stop offset="0.49" stop-color="#FF9200"></stop><stop offset="1" stop-color="#FF7600"></stop></linearGradient><linearGradient id="paint1_linear_2467_10717" x1="71.8863" y1="3.99399" x2="37.3667" y2="9.41441" gradientUnits="userSpaceOnUse"><stop stop-color="#00A600"></stop><stop offset="1" stop-color="#00D924"></stop></linearGradient><linearGradient id="paint2_linear_2467_10717" x1="9.97936" y1="79.3091" x2="43.9283" y2="73.6034" gradientUnits="userSpaceOnUse"><stop stop-color="#00A600"></stop><stop offset="1" stop-color="#00D924"></stop></linearGradient><clipPath id="clip0_2467_10717"><rect width="95" height="83.018" fill="white" transform="translate(-4)"></rect></clipPath></defs></svg>