<svg xmlns="http://www.w3.org/2000/svg" width="34" height="38" viewBox="0 0 34 38" fill="none"><path d="M34.0001 7.54211V13.6134C34.0001 23.2482 27.7969 31.8271 18.69 34.8627C9.58313 31.6951 3.37988 23.2482 3.37988 13.6134V7.54211L18.69 0.678955L34.0001 7.54211Z" fill="url(#paint0_linear_3891_6554)"></path><path d="M31.087 10.4454V16.5167C31.087 26.1515 24.8838 34.7304 15.7769 37.766C6.67003 34.5984 0.466797 26.1515 0.466797 16.5167V10.4454L15.7769 3.58228L31.087 10.4454Z" fill="#00D924"></path><path d="M31.0965 10.4455V16.5168C31.0965 21.9281 29.1167 26.9435 25.8171 30.903C23.7054 32.6188 21.3297 33.9386 18.69 34.8625C9.58313 31.6949 3.37988 23.2479 3.37988 13.6131V9.25767L15.7864 3.71436L31.0965 10.5775V10.4455Z" fill="url(#paint1_linear_3891_6554)"></path><defs><linearGradient id="paint0_linear_3891_6554" x1="5.88757" y1="23.7761" x2="35.056" y2="9.52185" gradientUnits="userSpaceOnUse"><stop stop-color="#FFD748"></stop><stop offset="1" stop-color="#FFC148"></stop></linearGradient><linearGradient id="paint1_linear_3891_6554" x1="3.37988" y1="19.1564" x2="31.0965" y2="19.1564" gradientUnits="userSpaceOnUse"><stop stop-color="#00A600"></stop><stop offset="1" stop-color="#00D924"></stop></linearGradient></defs></svg>