<svg xmlns="http://www.w3.org/2000/svg" width="89" height="89" viewBox="0 0 89 89" fill="none"><g clip-path="url(#clip0_2467_10706)"><path d="M43.3177 42.5707C32.3478 53.5406 28.3345 69.3266 30.4749 86.7179C16.8295 76.0155 8.26758 61.5674 8.26758 45.7814C8.26758 29.9955 16.5619 15.2797 30.2074 4.57739C41.1773 12.8717 48.9365 23.8416 51.6121 35.8817C48.4014 38.0222 45.7258 39.8951 43.0502 42.3031L43.3177 42.5707Z" fill="url(#paint0_linear_2467_10706)"></path><path d="M74.6227 73.875C65.5257 82.972 52.9505 87.5205 39.305 87.5205C36.3619 87.5205 33.1512 87.5205 30.208 86.7178C44.1211 76.0155 52.6829 61.5673 52.6829 45.7814C52.6829 42.5707 52.6829 39.36 51.8802 36.1493C62.0475 29.9954 74.0876 28.1225 87.198 29.7278C89.3384 46.8516 85.3251 62.9051 74.3552 73.875H74.6227Z" fill="#00D924"></path><path d="M52.9491 45.5137C52.9491 61.2997 44.3872 76.0154 30.4742 86.4502C28.3337 69.0588 32.3471 53.2729 43.317 42.303C45.9925 39.895 48.6681 37.7545 51.8788 35.8816C52.6815 39.0923 52.6815 42.303 52.6815 45.5137H52.9491Z" fill="url(#paint1_linear_2467_10706)"></path></g><defs><linearGradient id="paint0_linear_2467_10706" x1="8.00002" y1="45.5138" x2="51.8796" y2="45.5138" gradientUnits="userSpaceOnUse"><stop stop-color="#FFD748"></stop><stop offset="1" stop-color="#FFC148"></stop></linearGradient><linearGradient id="paint1_linear_2467_10706" x1="61.7785" y1="52.7378" x2="28.0661" y2="66.6508" gradientUnits="userSpaceOnUse"><stop stop-color="#00A600"></stop><stop offset="1" stop-color="#00D924"></stop></linearGradient><clipPath id="clip0_2467_10706"><rect width="80" height="82.9431" fill="white" transform="translate(8 4.57739)"></rect></clipPath></defs></svg>