<svg xmlns="http://www.w3.org/2000/svg" width="91" height="90" viewBox="0 0 91 90" fill="none"><path d="M54.875 78.75H11.75V11.25H79.25V54.375L71.75 71.25L54.875 78.75Z" fill="url(#paint0_linear_2574_3512)"></path><path d="M54.875 54.375H79.25L54.875 78.75V54.375Z" fill="#FFC966"></path><path d="M69.875 26.25H21.125V33.75H69.875V26.25Z" fill="url(#paint1_linear_2574_3512)"></path><path d="M69.875 41.25H21.125V48.75H69.875V41.25Z" fill="url(#paint2_linear_2574_3512)"></path><path d="M49.25 56.25H21.125V63.75H49.25V56.25Z" fill="url(#paint3_linear_2574_3512)"></path><path d="M79.25 54.375V78.75H54.875L79.25 54.375Z" fill="url(#paint4_linear_2574_3512)"></path><defs><linearGradient id="paint0_linear_2574_3512" x1="11.75" y1="45" x2="79.25" y2="45" gradientUnits="userSpaceOnUse"><stop stop-color="#FFCB6A"></stop><stop offset="1" stop-color="#FF9403"></stop></linearGradient><linearGradient id="paint1_linear_2574_3512" x1="25.0736" y1="26.25" x2="59.678" y2="44.4659" gradientUnits="userSpaceOnUse"><stop stop-color="#00D924"></stop><stop offset="1" stop-color="#00A600"></stop></linearGradient><linearGradient id="paint2_linear_2574_3512" x1="25.0736" y1="41.25" x2="59.678" y2="59.4659" gradientUnits="userSpaceOnUse"><stop stop-color="#00D924"></stop><stop offset="1" stop-color="#00A600"></stop></linearGradient><linearGradient id="paint3_linear_2574_3512" x1="23.403" y1="56.25" x2="46.7463" y2="63.3392" gradientUnits="userSpaceOnUse"><stop stop-color="#00D924"></stop><stop offset="1" stop-color="#00A600"></stop></linearGradient><linearGradient id="paint4_linear_2574_3512" x1="56.8493" y1="54.375" x2="78.802" y2="56.1528" gradientUnits="userSpaceOnUse"><stop stop-color="#00D924"></stop><stop offset="1" stop-color="#00A600"></stop></linearGradient></defs></svg>