<svg xmlns="http://www.w3.org/2000/svg" width="34" height="37" viewBox="0 0 34 37" fill="none"><path d="M30.7881 24.0821H34.0004L30.7881 13.6804C29.7174 8.02071 24.8224 3.89062 18.8568 3.89062C12.1263 3.89062 6.77246 9.3974 6.77246 15.9749C6.77246 19.4932 8.30212 22.8584 10.7496 24.9999V36.1664H23.5987V30.5067H30.9411V24.0821H30.7881Z" fill="url(#paint0_linear_3891_6536)"></path><path d="M15.0369 4.19717L12.7424 1.90268L11.5187 3.12641C11.5187 3.12641 10.4479 2.66751 9.83608 2.51455V0.678955H6.62379V2.51455C6.62379 2.51455 5.55303 2.97344 4.94117 3.12641L3.71744 1.90268L1.42295 4.19717L2.64667 5.4209C2.64667 5.4209 2.18777 6.49166 2.03481 7.10353H0.199219V10.3158H2.03481C2.03481 10.3158 2.49371 11.3866 2.64667 11.9984L1.42295 13.2222L3.71744 15.5167L4.94117 14.2929C5.85897 14.9048 7.08269 15.2107 8.15346 15.2107C11.6717 15.2107 14.578 12.3044 14.578 8.78615C14.578 7.56242 14.2721 6.49166 13.6602 5.57387L14.884 4.35014L15.0369 4.19717Z" fill="#00D924"></path><path d="M12.896 6.49173L14.8846 4.50317C13.9668 4.80911 13.049 5.268 12.2842 5.7269L12.896 6.33877V6.49173Z" fill="url(#paint1_linear_3891_6536)"></path><path d="M6.62563 15.0583C6.62563 15.0583 7.69639 15.2112 8.15529 15.2112C11.6735 15.2112 14.5799 12.3049 14.5799 8.78666C14.5799 7.40997 14.121 6.18624 13.3561 5.11548C9.53199 6.95107 6.77859 10.6223 6.47266 15.0583H6.62563Z" fill="url(#paint2_linear_3891_6536)"></path><path d="M16.2582 7.10425H13.0459V10.3165H16.2582V7.10425Z" fill="url(#paint3_linear_3891_6536)"></path><path d="M12.8902 11.0815L10.5957 13.376L12.8902 15.6705L15.1847 13.376L12.8902 11.0815Z" fill="url(#paint4_linear_3891_6536)"></path><path d="M9.83791 16.7399V13.5276H6.7786C6.7786 14.2924 6.47266 15.0572 6.47266 15.975C6.47266 16.281 6.47266 16.5869 6.47266 16.8928H9.68494L9.83791 16.7399Z" fill="url(#paint5_linear_3891_6536)"></path><path d="M11.5085 8.78528C11.5085 10.4679 9.97888 11.9976 8.29626 11.9976C7.99032 11.9976 7.6844 11.9976 7.37847 11.8446C6.00177 11.5387 5.08398 10.162 5.08398 8.78528C5.08398 6.94969 6.46066 5.573 8.29626 5.573C9.36702 5.573 10.2848 6.0319 10.8967 6.94969C11.0496 7.25562 11.2026 7.40859 11.3556 7.71452C11.5086 8.02045 11.6615 8.47935 11.6615 8.93825L11.5085 8.78528Z" fill="url(#paint6_linear_3891_6536)"></path><defs><linearGradient id="paint0_linear_3891_6536" x1="6.6195" y1="19.9521" x2="34.0004" y2="19.9521" gradientUnits="userSpaceOnUse"><stop stop-color="#FFD748"></stop><stop offset="1" stop-color="#FFC148"></stop></linearGradient><linearGradient id="paint1_linear_3891_6536" x1="13.049" y1="4.65614" x2="16.5672" y2="8.32732" gradientUnits="userSpaceOnUse"><stop stop-color="#00A600"></stop><stop offset="1" stop-color="#00D924"></stop></linearGradient><linearGradient id="paint2_linear_3891_6536" x1="8.76715" y1="8.6337" x2="12.2854" y2="12.3049" gradientUnits="userSpaceOnUse"><stop stop-color="#00A600"></stop><stop offset="1" stop-color="#00D924"></stop></linearGradient><linearGradient id="paint3_linear_3891_6536" x1="11.8222" y1="5.72755" x2="15.3404" y2="9.39874" gradientUnits="userSpaceOnUse"><stop stop-color="#00A600"></stop><stop offset="1" stop-color="#00D924"></stop></linearGradient><linearGradient id="paint4_linear_3891_6536" x1="8.60714" y1="8.78705" x2="12.1254" y2="12.6112" gradientUnits="userSpaceOnUse"><stop stop-color="#00A600"></stop><stop offset="1" stop-color="#00D924"></stop></linearGradient><linearGradient id="paint5_linear_3891_6536" x1="5.24893" y1="11.9979" x2="8.76714" y2="15.6691" gradientUnits="userSpaceOnUse"><stop stop-color="#00A600"></stop><stop offset="1" stop-color="#00D924"></stop></linearGradient><linearGradient id="paint6_linear_3891_6536" x1="5.84881" y1="6.79673" x2="10.1319" y2="10.3149" gradientUnits="userSpaceOnUse"><stop stop-color="#00A600"></stop><stop offset="1" stop-color="#00D924"></stop></linearGradient></defs></svg>