<svg width="86" height="85" viewBox="0 0 86 85" fill="none" xmlns="http://www.w3.org/2000/svg">
<g filter="url(#filter0_d_3891_18542)">
<rect x="13.25" y="10" width="56" height="56" rx="5.2" fill="white" shape-rendering="crispEdges"/>
<g clip-path="url(#clip0_3891_18542)">
<g clip-path="url(#clip1_3891_18542)">
<g clip-path="url(#clip2_3891_18542)">
<path d="M53.6455 25.9512H29.6455V43.638H53.6455V25.9512Z" fill="url(#paint0_linear_3891_18542)"/>
<path d="M51.391 49.95H31.9004L32.7522 46.1922C33.153 43.6369 35.3576 41.7329 38.0131 41.7329H45.3785C47.9839 41.7329 50.1885 43.6369 50.6394 46.1922L51.4912 49.95H51.391Z" fill="#FFD43C"/>
<path d="M49.3866 43.6375H33.9043C34.9064 42.4851 36.3594 41.7335 37.9628 41.7335H38.8145C37.612 40.982 36.7101 39.6793 36.5097 38.126C35.9085 38.0258 35.4074 37.5248 35.4074 36.8734C35.4074 36.3223 35.7582 35.8713 36.2091 35.721C35.9085 32.5143 38.4137 29.7085 41.6204 29.7085C44.6767 29.7085 47.0818 32.2137 47.0818 35.1699C47.0818 35.3703 47.0818 35.5206 47.0818 35.721C47.5327 35.9214 47.8834 36.3724 47.8834 36.8734C47.8834 37.5248 47.4325 38.0258 46.7811 38.126C46.5306 39.6292 45.6788 40.9319 44.4763 41.7335H45.4283C47.0316 41.7335 48.5348 42.435 49.4868 43.6375H49.3866Z" fill="url(#paint1_linear_3891_18542)"/>
</g>
</g>
</g>
</g>
<defs>
<filter id="filter0_d_3891_18542" x="0.929999" y="0.523999" width="84.432" height="84.432" filterUnits="userSpaceOnUse" color-interpolation-filters="sRGB">
<feFlood flood-opacity="0" result="BackgroundImageFix"/>
<feColorMatrix in="SourceAlpha" type="matrix" values="0 0 0 0 0 0 0 0 0 0 0 0 0 0 0 0 0 0 127 0" result="hardAlpha"/>
<feOffset dx="1.896" dy="4.74"/>
<feGaussianBlur stdDeviation="7.108"/>
<feComposite in2="hardAlpha" operator="out"/>
<feColorMatrix type="matrix" values="0 0 0 0 0.0862745 0 0 0 0 0.133333 0 0 0 0 0.2 0 0 0 0.05 0"/>
<feBlend mode="normal" in2="BackgroundImageFix" result="effect1_dropShadow_3891_18542"/>
<feBlend mode="normal" in="SourceGraphic" in2="effect1_dropShadow_3891_18542" result="shape"/>
</filter>
<linearGradient id="paint0_linear_3891_18542" x1="31.5894" y1="25.9512" x2="53.0866" y2="28.3135" gradientUnits="userSpaceOnUse">
<stop stop-color="#00D924"/>
<stop offset="1" stop-color="#00A600"/>
</linearGradient>
<linearGradient id="paint1_linear_3891_18542" x1="35.1664" y1="29.7085" x2="49.1774" y2="30.9779" gradientUnits="userSpaceOnUse">
<stop stop-color="#FFC700"/>
<stop offset="1" stop-color="#FFD748"/>
</linearGradient>
<clipPath id="clip0_3891_18542">
<rect width="35.6891" height="23.7927" fill="white" transform="translate(23.4053 25.9585)"/>
</clipPath>
<clipPath id="clip1_3891_18542">
<rect width="24" height="24" fill="white" transform="translate(29.75 25.9995)"/>
</clipPath>
<clipPath id="clip2_3891_18542">
<rect width="24" height="24" fill="white" transform="translate(29.6455 25.9512)"/>
</clipPath>
</defs>
</svg>
