<svg xmlns="http://www.w3.org/2000/svg" width="173" height="52" viewBox="0 0 173 52" fill="none"><g clip-path="url(#clip0_2138_17628)"><path d="M15.5225 0.56594C18.6209 0.0796782 21.8389 0.428455 24.771 1.53268C24.4428 2.73965 24.1437 3.95241 23.8316 5.16227C19.3167 3.24472 13.8201 3.85834 9.88582 6.79038C5.90779 9.62836 3.64671 14.6386 4.15728 19.4723C4.49279 22.9427 6.19808 26.2481 8.80488 28.5781C11.2775 30.7735 14.5349 32.1006 17.8594 32.1788C18.4196 32.1889 19.0264 32.2439 19.4626 32.6361C20.3014 33.2728 20.348 34.6361 19.5851 35.351C18.9272 36.0688 17.8579 35.8937 16.9885 35.8489C11.0601 35.4914 5.46433 31.9269 2.62704 26.7575C1.1216 24.1135 0.364508 21.0816 0.351379 18.0497V17.8311C0.438905 15.3738 0.958223 12.9222 2.00853 10.6892C4.44028 5.36488 9.68743 1.41256 15.5225 0.56594Z" fill="#424748"></path><path d="M103.219 7.27451C104.293 7.08782 105.361 6.86639 106.434 6.68115C106.43 9.95329 106.421 13.2269 106.439 16.499C108.943 15.5945 111.817 15.3818 114.32 16.4035C115.979 17.0663 117.179 18.5815 117.692 20.2531C118.117 21.7379 118.23 23.2879 118.244 24.8262C118.244 28.3328 118.25 31.838 118.241 35.3446C117.174 35.3431 116.104 35.3475 115.037 35.3431C115.032 32.8944 115.037 30.4472 115.035 28C115.021 26.2286 115.107 24.4442 114.824 22.6873C114.665 21.3023 113.989 19.8319 112.666 19.2024C110.656 18.4585 108.44 18.8334 106.436 19.4007C106.444 24.709 106.427 30.0159 106.446 35.3243C105.371 35.3214 104.296 35.3446 103.221 35.3446C103.216 25.9884 103.221 16.6307 103.219 7.27451Z" fill="#424748"></path><path d="M142.794 16.9419C146.043 15.7451 149.672 15.3138 153.041 16.2791C152.839 17.2777 152.645 18.2763 152.418 19.269C150.352 18.5599 148.079 18.5642 145.999 19.2111C145.996 24.5904 145.986 29.9682 146.004 35.3475C144.931 35.3388 143.861 35.3446 142.788 35.3446C142.794 29.2099 142.784 23.0766 142.794 16.9419Z" fill="#424748"></path><path d="M56.1578 15.9589C58.2861 15.765 60.4684 16.0429 62.4567 16.8258C62.1927 17.7911 61.9272 18.7549 61.6821 19.7245C60.1519 19.04 58.451 18.8215 56.7865 18.9315C55.4445 19.0632 54.1607 19.7289 53.2811 20.7405C52.5182 21.7405 52.0426 22.9417 51.8253 24.1747C51.6531 25.1516 51.7392 26.1487 51.8019 27.1328C51.958 28.6741 52.3461 30.3065 53.4912 31.4354C54.6319 32.6322 56.3679 33.0446 57.9769 33.0128C59.4298 33.0244 60.8842 32.7639 62.2291 32.214C62.4129 33.159 62.5836 34.1069 62.7514 35.0548C61.4414 35.6786 59.9651 35.7828 58.5458 35.9839C57.1891 36.2242 55.7902 36.0491 54.4715 35.6901C52.5722 35.1909 50.88 33.9694 49.8005 32.3413C48.8698 31.0301 48.4264 29.444 48.2061 27.8723C47.8662 25.0734 48.2455 22.0589 49.8822 19.6898C51.2505 17.5711 53.6487 16.2078 56.1578 15.9589Z" fill="#424748"></path><path d="M159.879 17.2532C161.673 16.0317 163.935 15.6366 166.073 15.8725C168.13 16.1113 170.076 17.2575 171.23 18.9696C172.26 20.5789 172.648 22.4993 172.776 24.3763V26.8814C168.336 26.8814 163.895 26.8786 159.455 26.8814C159.547 28.5414 160.116 30.2231 161.277 31.4488C162.225 32.3056 163.485 32.7759 164.75 32.912C166.843 33.022 168.97 32.7832 170.934 32.0263C171.085 32.98 171.253 33.9322 171.405 34.886C170.442 35.2651 169.446 35.5618 168.419 35.7022C165.841 36.1117 163.072 36.0828 160.682 34.9308C158.582 33.9322 157.032 31.9684 156.409 29.7599C155.659 27.1564 155.643 24.3083 156.534 21.7366C157.138 19.9479 158.285 18.3082 159.879 17.2532ZM161.471 19.5427C160.28 20.5818 159.751 22.1433 159.544 23.6614C162.749 23.6643 165.955 23.6629 169.16 23.6629C169.193 22.3589 168.872 21.0159 168.067 19.9667C166.575 17.9102 163.255 17.8176 161.471 19.5427Z" fill="#424748"></path><path d="M86.8735 17.4624C88.2666 16.4913 89.9558 15.924 91.664 15.9327C93.5517 15.9761 95.4568 16.1845 97.2511 16.7924C97.0264 17.775 96.7945 18.7562 96.6034 19.7461C94.9842 18.9892 93.1651 18.749 91.3898 18.843C90.5787 18.9386 89.7399 19.1455 89.0835 19.6506C88.1936 20.3756 88.2286 21.8026 88.9259 22.6449C89.4919 23.2758 90.268 23.6796 91.047 23.9937C92.8762 24.7216 94.8076 25.3222 96.405 26.5046C97.5764 27.3483 98.2372 28.7564 98.2912 30.1761C98.3947 31.3961 98.1584 32.6841 97.3853 33.6683C96.8134 34.4903 95.8871 34.949 94.9915 35.3383C94.1089 35.6654 93.2088 35.9722 92.265 36.0547C89.6874 36.2616 87.0368 36.0258 84.6313 35.0359C84.8443 34.0489 85.0544 33.0619 85.2645 32.0734C86.5817 32.551 87.915 33.0575 89.3344 33.114C90.885 33.1661 92.5568 33.2471 93.9528 32.4569C94.92 31.8983 95.0425 30.5596 94.5626 29.6436C94.1191 28.8042 93.1738 28.4612 92.4065 27.988C90.9536 27.2788 89.4234 26.7376 87.9632 26.0444C86.8049 25.4857 85.7619 24.5682 85.3038 23.3497C84.5438 21.3163 85.1901 18.8503 86.8735 17.4624Z" fill="#424748"></path><path d="M16.5638 18.8737C15.9978 17.8419 16.7097 16.4091 17.884 16.2442C18.9955 16.1371 20.11 16.3122 21.2114 16.4395C23.6154 16.8896 25.9611 17.742 28.0019 19.0923C30.9719 20.9953 33.3483 23.8015 34.7326 27.0288C36.0411 30.0505 36.4904 33.4384 35.9755 36.6903C35.2986 41.2649 32.6889 45.5082 28.9355 48.239C24.1347 51.9034 17.3836 52.7616 11.7659 50.5546C12.0942 49.3577 12.418 48.158 12.7229 46.9554C14.6251 47.7079 16.6703 48.1334 18.7242 48.0408C21.9904 47.9424 25.1967 46.6659 27.6401 44.5154C30.0909 42.3764 31.7465 39.3677 32.2469 36.1693C32.775 32.9667 32.1098 29.5975 30.438 26.8117C28.0311 22.7132 23.3981 19.9968 18.6104 19.936C17.8037 19.9707 16.9168 19.6465 16.5638 18.8737Z" fill="#424748"></path><path d="M68.3444 17.2399C70.3151 16.6089 72.4084 16.4106 74.4726 16.47C76.2523 16.5713 78.1618 17.1038 79.3303 18.5279C80.4871 19.8608 80.7059 21.7002 80.7511 23.392C80.7657 27.188 80.7453 30.984 80.7598 34.78C79.2048 35.0536 77.6352 35.2562 76.0597 35.3719C74.4565 35.4602 72.833 35.576 71.2473 35.2605C70.1211 35.1172 69.0708 34.6049 68.1781 33.9247C66.9235 32.8726 66.4494 31.175 66.483 29.5961C66.464 28.036 67.1701 26.4542 68.4669 25.5396C70.0963 24.4528 72.0934 24.0924 74.0262 24.0504C75.2355 23.9578 76.4332 24.185 77.6075 24.4441C77.6293 23.1488 77.4601 21.7783 76.7351 20.6698C76.0291 19.6813 74.7716 19.2385 73.5842 19.2573C71.9504 19.2746 70.2787 19.3817 68.7382 19.9592C68.5894 19.0561 68.4596 18.1487 68.3444 17.2399ZM71.0912 27.2763C70.3181 27.6583 69.5974 28.3139 69.418 29.1851C69.2692 30.0694 69.3378 31.0564 69.9125 31.7887C70.6011 32.6874 71.8016 32.9594 72.8709 33.1027C74.4288 33.1693 75.9999 33.1418 77.5447 32.9233C77.5462 30.9999 77.5389 29.0751 77.5491 27.1504C76.5645 26.7784 75.4966 26.7147 74.4536 26.7075C73.3158 26.7133 72.1371 26.79 71.0912 27.2763Z" fill="#424748"></path><path d="M125.122 17.2654C126.639 16.6952 128.273 16.5447 129.882 16.4709C131.247 16.3913 132.64 16.5476 133.923 17.0367C135.562 17.6778 136.796 19.196 137.132 20.9066C137.371 21.8096 137.441 22.7445 137.456 23.6751C137.459 27.3814 137.448 31.0891 137.46 34.7954C135.1 35.1746 132.716 35.464 130.322 35.4843C128.438 35.4698 126.427 35.1731 124.921 33.9575C123.567 32.8417 123.077 30.9878 123.185 29.3004C123.243 27.8995 123.898 26.5232 125.015 25.6505C126.677 24.4739 128.756 24.0832 130.761 24.047C131.959 23.9529 133.144 24.1888 134.306 24.445C134.316 23.2178 134.297 21.8979 133.631 20.8183C132.985 19.8183 131.79 19.277 130.613 19.2611C128.896 19.2437 127.142 19.3667 125.516 19.9529C125.403 19.0541 125.249 18.1612 125.122 17.2654ZM127.621 27.3524C126.926 27.7461 126.282 28.3626 126.121 29.1687C125.961 30.0688 126.031 31.0833 126.633 31.8185C127.345 32.6955 128.537 32.9763 129.612 33.1094C131.157 33.1644 132.713 33.1369 134.248 32.9271C134.251 31.0052 134.239 29.0818 134.254 27.16C133.246 26.7475 132.133 26.7301 131.059 26.7055C129.892 26.7229 128.675 26.8126 127.621 27.3524Z" fill="#424748"></path></g><defs><clipPath id="clip0_2138_17628"><rect width="172.425" height="51.4063" fill="white" transform="translate(0.351379 0.351562)"></rect></clipPath></defs></svg>