<svg xmlns="http://www.w3.org/2000/svg" width="153" height="47" viewBox="0 0 153 47" fill="none"><path d="M104.343 31.2042C104.329 31.3998 104.301 31.6221 104.144 31.7342C104.037 31.8113 103.896 31.814 103.765 31.8138C103.185 31.8131 102.605 31.8124 102.025 31.8117C101.803 31.8115 101.504 31.7385 101.506 31.5098C101.52 29.0465 101.535 26.5832 101.549 24.1199C101.557 22.7655 101.564 21.4015 101.325 20.0698C101.198 19.3648 100.993 18.6547 100.568 18.0863C99.9465 17.255 98.9189 16.8288 97.9038 16.7256C96.8887 16.6224 95.869 16.8042 94.8643 16.9854C94.4849 17.0538 94.0099 17.2316 94.0101 17.6275C94.0124 22.1046 94.0147 26.5817 94.017 31.0588C94.017 31.2264 94.0144 31.4041 93.9273 31.5457C93.7709 31.7999 93.4264 31.8256 93.1338 31.8238C92.5823 31.8203 92.0308 31.8169 91.4793 31.8134C91.3613 31.8127 91.2276 31.8048 91.1511 31.7125C91.0883 31.6366 91.0851 31.5278 91.0851 31.4283C91.0848 23.1983 91.0845 14.9683 91.0842 6.7383C91.0842 6.54937 91.0941 6.33642 91.2307 6.21005C91.3189 6.12847 91.4416 6.10217 91.5581 6.07895C92.1448 5.962 92.7315 5.84504 93.3182 5.72809C93.4467 5.70247 93.5837 5.67757 93.7052 5.72768C93.9597 5.83265 93.997 6.18083 93.9938 6.46265C93.9669 8.87753 93.9399 11.2924 93.9129 13.7073C93.9093 14.0328 94.0511 14.4885 94.3589 14.4114C96.2539 13.9369 98.2704 13.6859 100.138 14.2628C102.006 14.8397 103.686 16.4053 103.946 18.3923C104.5 22.6344 104.633 26.9345 104.343 31.2042Z" fill="#FAFEFF"></path><path d="M64.0718 17.1345C62.8684 17.189 61.6713 17.3881 60.5125 17.7263C60.4167 17.0457 60.3208 16.3652 60.225 15.6846C60.2124 15.5953 60.2005 15.5004 60.2363 15.4181C60.2859 15.3037 60.4105 15.2484 60.5248 15.2051C62.6304 14.4083 64.9662 14.2675 67.148 14.8059C67.7594 14.9568 68.3661 15.1632 68.8941 15.5141C69.8717 16.1635 70.5015 17.2632 70.8243 18.4127C71.1472 19.5622 71.1942 20.772 71.2255 21.968C71.3035 24.9497 71.2974 27.9336 71.2072 30.9149C71.2041 31.0172 71.1976 31.1285 71.1318 31.2053C71.07 31.2773 70.9715 31.3004 70.8799 31.319C68.5005 31.8024 66.0579 31.9564 63.6389 31.7756C63.0019 31.7279 62.3612 31.6561 61.7527 31.4568C60.1257 30.9239 58.8345 29.4286 58.5128 27.7049C58.1911 25.9811 58.8523 24.1009 60.1719 22.9869C61.4333 21.9222 63.1266 21.5929 64.751 21.4277C65.631 21.3382 66.5761 21.3002 67.3374 21.7627C67.6865 21.9748 68.1587 21.6732 68.2885 21.2783C68.4182 20.8834 68.3116 20.4523 68.2046 20.0503C68.0281 19.3875 67.8398 18.7013 67.4057 18.1788C66.6238 17.2375 65.2748 17.08 64.0718 17.1345ZM64.4115 29.8118C65.3362 29.8107 66.2609 29.8096 67.1855 29.8085C67.5532 29.808 67.9905 29.7681 68.1714 29.4391C68.2598 29.2783 68.2618 29.0841 68.2615 28.8994C68.2596 27.5316 68.2576 26.1638 68.2556 24.796C68.2553 24.5545 68.2308 24.2677 68.027 24.1475C67.929 24.0897 67.8104 24.0863 67.6974 24.0844C66.8385 24.07 65.9796 24.0555 65.1206 24.041C64.3661 24.0283 63.5904 24.0191 62.8846 24.2935C61.8342 24.7019 61.0472 25.7897 61.043 26.944C61.0388 28.0984 61.8665 29.2223 62.9652 29.4611C63.194 29.5108 63.4385 29.5283 63.635 29.6586C63.8597 29.8076 64.144 29.8121 64.4115 29.8118Z" fill="#FAFEFF"></path><path d="M54.8021 29.4696C54.9148 29.948 55.0275 30.4264 55.1402 30.9048C55.1858 31.0981 55.2244 31.3247 55.0997 31.4768C55.0332 31.5579 54.9326 31.5993 54.8359 31.6366C52.7018 32.46 50.3302 32.7596 48.125 32.1665C45.9198 31.5734 43.9126 30.016 43.0237 27.8585C42.7614 27.2221 42.5979 26.5471 42.4755 25.8675C42.13 23.9481 42.1115 21.9421 42.637 20.0664C43.1624 18.1906 44.2613 16.4524 45.8426 15.3716C48.1434 13.7989 51.1666 13.7822 53.8419 14.4917C54.2745 14.6065 54.7797 14.8246 54.8421 15.2793C54.9048 15.7359 54.4676 16.1124 54.4147 16.5702C54.3925 16.7622 54.4399 16.9594 54.4026 17.1489C54.3654 17.3384 54.1848 17.5257 54.0085 17.4581C51.9671 16.6755 49.5233 16.3916 47.7278 17.6603C45.8421 18.9927 45.2683 21.6257 45.4375 23.9714C45.5746 25.8707 46.2265 27.9165 47.8221 28.8844C48.9076 29.5428 50.2341 29.5846 51.4944 29.5662C52.4649 29.5521 53.4758 29.502 54.3273 29.0232C54.5465 28.8999 54.7433 29.22 54.8021 29.4696Z" fill="#FAFEFF"></path><path d="M85.1074 17.5641C83.6379 16.8455 81.963 16.5779 80.3506 16.8041C79.2875 16.9532 78.084 17.5012 77.8995 18.5877C77.7843 19.2657 78.1288 19.957 78.6229 20.4215C79.117 20.886 79.7447 21.1664 80.3597 21.4386C81.5378 21.96 82.716 22.4814 83.8941 23.0028C85.4457 23.6895 86.5671 25.3058 86.6932 27.0374C86.8192 28.769 85.9444 30.539 84.5095 31.4554C83.8405 31.8827 83.0758 32.1289 82.304 32.2903C79.9203 32.7889 77.422 32.506 75.1052 31.7441C74.985 31.7046 74.8602 31.6606 74.7729 31.567C74.5939 31.3748 74.6424 31.0659 74.7028 30.8072C74.8561 30.1508 75.0094 29.4944 75.1627 28.838C77.0528 29.6911 79.176 29.9904 81.2198 29.692C82.1213 29.5603 83.1196 29.2225 83.4963 28.3705C83.8403 27.5925 83.5116 26.6404 82.9272 26.0326C82.3427 25.4249 81.5512 25.0856 80.782 24.7614C80.1582 24.4985 79.5345 24.2356 78.9107 23.9727C78.0375 23.6047 77.1479 23.2265 76.4308 22.5958C74.783 21.1466 74.4287 18.3805 75.6555 16.5423C76.8565 14.7426 79.1555 14.0567 81.2787 14.0675C82.8131 14.0753 84.3457 14.3803 85.7721 14.9617C85.5506 15.8292 85.329 16.6966 85.1074 17.5641Z" fill="#FAFEFF"></path><path d="M147.426 29.5115C148.528 29.4716 149.695 29.4114 150.612 28.7819C150.89 28.5911 151.169 29.0258 151.24 29.3616C151.417 30.2053 151.5 31.2907 150.776 31.7272C150.548 31.8644 150.279 31.904 150.017 31.9407C148.077 32.2135 146.098 32.4798 144.171 32.1234C142.369 31.7903 140.633 30.8746 139.501 29.3963C138.335 27.8738 137.889 25.8887 137.78 23.9544C137.633 21.3447 138.111 18.5586 139.792 16.5973C141.51 14.594 144.292 13.7572 146.871 14.0755C147.441 14.1459 148.008 14.2682 148.543 14.4852C150.237 15.1734 151.468 16.7802 152.08 18.5442C152.691 20.3082 152.751 22.2243 152.644 24.0939C148.892 24.0931 145.14 24.0922 141.388 24.0914C141.263 24.0914 141.13 24.0939 141.027 24.1661C140.82 24.3114 140.855 24.6309 140.917 24.8807C141.273 26.3207 141.823 27.8217 143.003 28.6797C144.25 29.5863 145.9 29.5667 147.426 29.5115ZM141.262 19.7487C141.159 20.172 141.056 20.5954 140.953 21.0187C143.645 21.1001 146.339 21.1164 149.032 21.0676C149.123 21.0659 149.218 21.0629 149.297 21.0155C149.451 20.9224 149.475 20.7061 149.47 20.5225C149.443 19.3604 148.982 18.2145 148.202 17.3727C148.007 17.1624 147.792 16.9698 147.552 16.8173C147.261 16.6326 146.936 16.5092 146.603 16.4265C145.481 16.1477 144.254 16.3427 143.267 16.9571C142.279 17.5714 141.542 18.5976 141.262 19.7487Z" fill="#FAFEFF"></path><path d="M114.895 17.1275C113.716 17.1065 112.534 17.2723 111.404 17.6172C111.062 17.7216 110.806 17.3003 110.685 16.9554C110.515 16.4741 110.352 15.9134 110.609 15.4755C110.859 15.0515 111.394 14.9312 111.87 14.8526C113.307 14.6152 114.767 14.3976 116.214 14.5638C117.66 14.73 119.113 15.3234 120.053 16.4655C121.377 18.0739 121.438 20.3759 121.433 22.4828C121.427 25.2202 121.421 27.9576 121.415 30.695C121.414 30.8931 121.402 31.119 121.252 31.2439C121.168 31.3143 121.056 31.3368 120.949 31.3565C119.024 31.7113 117.066 31.8831 115.111 31.8691C113.741 31.8593 112.322 31.744 111.122 31.0657C109.716 30.2709 108.755 28.703 108.663 27.0566C108.572 25.4102 109.353 23.7399 110.662 22.7857C111.175 22.4118 111.755 22.1455 112.352 21.9402C114.231 21.2929 116.301 21.2454 118.206 21.806C118.562 21.911 118.702 21.3451 118.651 20.9674C118.504 19.8833 118.313 18.7081 117.53 17.9654C116.839 17.3094 115.836 17.1442 114.895 17.1275ZM118.423 29.3586C118.49 29.2087 118.493 29.0377 118.493 28.8725C118.5 27.4583 118.495 26.044 118.477 24.6299C118.474 24.45 118.459 24.2427 118.317 24.1376C118.223 24.0681 118.099 24.0646 117.983 24.0637C117.046 24.0567 116.11 24.0498 115.174 24.0428C114.564 24.0382 113.944 24.035 113.359 24.2095C112.258 24.5377 111.356 25.5641 111.255 26.7381C111.155 27.912 111.935 29.1329 113.05 29.407C113.324 29.4745 113.619 29.4918 113.859 29.6433C114.121 29.8088 114.447 29.814 114.755 29.8142C115.601 29.8148 116.446 29.8153 117.292 29.8159C117.721 29.8162 118.243 29.7594 118.423 29.3586Z" fill="#FAFEFF"></path><path d="M134.284 14.1492C134.554 14.1905 134.84 14.2466 135.04 14.4379C135.24 14.6292 135.299 15.0021 135.087 15.1795C134.808 15.4129 134.881 15.8552 134.903 16.2237C134.925 16.5922 134.731 17.0796 134.377 17.0147C132.991 16.7603 131.576 16.6701 130.17 16.7467C129.925 16.76 129.672 16.7808 129.456 16.9002C128.9 17.2072 128.831 17.984 128.833 18.6327C128.844 22.8312 128.856 27.0298 128.867 31.2284C128.867 31.4067 128.857 31.6103 128.722 31.7229C128.619 31.809 128.475 31.8133 128.342 31.8137C127.79 31.8151 127.238 31.8165 126.686 31.818C126.573 31.8183 126.451 31.8156 126.362 31.745C126.236 31.6463 126.225 31.4597 126.225 31.2973C126.226 26.0202 126.226 20.7431 126.226 15.466C126.226 15.3167 126.229 15.1582 126.307 15.0322C126.401 14.8807 126.58 14.814 126.746 14.7601C129.171 13.9757 131.77 13.7651 134.284 14.1492Z" fill="#FAFEFF"></path><path d="M11.0212 46.0872C10.6924 46.0533 10.3047 45.9699 10.1786 45.6559C10.1051 45.4728 10.1477 45.2648 10.1912 45.0719C10.3276 44.468 10.4639 43.864 10.6002 43.2601C10.688 42.8713 10.9574 42.3733 11.3199 42.5164C15.8784 44.3165 21.4318 43.041 24.8113 39.4177C28.1909 35.7944 29.1968 30.0375 27.2552 25.4318C25.3135 20.8261 20.5391 17.6439 15.6561 17.7009C14.968 17.709 14.305 17.1991 14.1184 16.5183C13.9317 15.8375 14.238 15.0469 14.8289 14.6844C15.2991 14.3959 15.8766 14.3778 16.4238 14.397C21.1688 14.5642 25.7844 17.077 28.585 21.0177C31.3855 24.9585 32.3106 30.2423 31.0224 34.9395C29.7342 39.6366 26.2604 43.6458 21.8698 45.5028C21.3486 45.7232 20.8144 45.9153 20.2636 46.0376C19.3697 46.236 18.4479 46.2478 17.5334 46.2587C15.3609 46.2847 13.183 46.3105 11.0212 46.0872Z" fill="#FAFEFF"></path><path d="M21.3403 1.37122C21.3943 1.56733 21.3374 1.77556 21.2808 1.97088C21.1184 2.53092 20.9561 3.09096 20.7938 3.651C20.7185 3.91075 20.524 4.23615 20.2789 4.13606C15.8789 2.33873 10.5057 3.40484 7.07259 6.75634C3.63949 10.1078 2.32689 15.5687 3.84649 20.1779C5.36608 24.7872 9.63805 28.3028 14.3461 28.8185C14.9263 28.8821 15.5181 28.9053 16.072 29.094C16.6258 29.2827 17.1517 29.6724 17.3401 30.24C17.5067 30.7424 17.3675 31.3376 16.9968 31.7071C16.5105 32.1921 15.7613 32.2409 15.0841 32.2161C9.11206 31.9974 3.43215 27.946 1.14303 22.272C-1.14609 16.5981 0.0775479 9.60395 4.14639 5.10524C8.21524 0.60654 14.9125 -1.15703 20.5845 0.776632C20.8986 0.88371 21.2502 1.04391 21.3403 1.37122Z" fill="#FAFEFF"></path></svg>