<svg xmlns="http://www.w3.org/2000/svg" width="84" height="82" viewBox="0 0 84 82" fill="none"><path d="M42.1992 76.0832V6.9165L73.3242 20.7498V32.899C73.3242 52.4921 60.786 69.8876 42.1992 76.0832Z" fill="#00B5CE"></path><path d="M36.7305 48.0716L71.632 11.562L77.091 16.7997L42.1894 53.3093L36.7305 48.0716Z" fill="#3F75E3"></path><path d="M42.1992 76.0832V6.9165L11.0742 20.7498V32.899C11.0742 52.4921 23.6124 69.8876 42.1992 76.0832Z" fill="url(#paint0_linear_2141_33876)"></path><path d="M42.1992 42.3513V53.3004L73.319 20.7471L65.9718 17.4824L42.1992 42.3513Z" fill="url(#paint1_linear_2141_33876)"></path><path d="M31.1162 32.2197L25.8789 37.6787L42.171 53.3093L47.4083 47.8503L31.1162 32.2197Z" fill="url(#paint2_linear_2141_33876)"></path><defs><linearGradient id="paint0_linear_2141_33876" x1="11.0742" y1="41.4019" x2="42.1992" y2="41.4019" gradientUnits="userSpaceOnUse"><stop stop-color="#11EFE3"></stop><stop offset="1" stop-color="#21CFE0"></stop></linearGradient><linearGradient id="paint1_linear_2141_33876" x1="75.1862" y1="54.6137" x2="47.2168" y2="31.334" gradientUnits="userSpaceOnUse"><stop stop-color="#0073E6"></stop><stop offset="1" stop-color="#00299C"></stop></linearGradient><linearGradient id="paint2_linear_2141_33876" x1="48.3199" y1="48.0959" x2="38.6793" y2="53.3066" gradientUnits="userSpaceOnUse"><stop stop-color="#0073E6"></stop><stop offset="1" stop-color="#00299C"></stop></linearGradient></defs></svg>