<svg xmlns="http://www.w3.org/2000/svg" width="84" height="79" viewBox="0 0 84 79" fill="none"><g clip-path="url(#clip0_2141_34038)"><path d="M83.3227 83.1347H33.1211V32.9331H83.3227V83.1347Z" fill="url(#paint0_linear_2141_34038)"></path><path d="M27.6004 54.6887C42.6647 54.6887 54.8766 42.4767 54.8766 27.4124C54.8766 12.3482 42.6647 0.13623 27.6004 0.13623C12.5362 0.13623 0.324219 12.3482 0.324219 27.4124C0.324219 42.4767 12.5362 54.6887 27.6004 54.6887Z" fill="url(#paint1_linear_2141_34038)"></path><path d="M33.1211 54.0196C43.8308 51.8442 52.365 43.3099 54.3731 32.7676H33.1211V54.0196Z" fill="url(#paint2_linear_2141_34038)"></path></g><defs><linearGradient id="paint0_linear_2141_34038" x1="86.3348" y1="84.9754" x2="46.5082" y2="46.8222" gradientUnits="userSpaceOnUse"><stop stop-color="#0073E6"></stop><stop offset="1" stop-color="#00299C"></stop></linearGradient><linearGradient id="paint1_linear_2141_34038" x1="0.324219" y1="27.4124" x2="54.8766" y2="27.4124" gradientUnits="userSpaceOnUse"><stop stop-color="#11EFE3"></stop><stop offset="0.3" stop-color="#15E8E2"></stop><stop offset="0.7" stop-color="#1FD3E0"></stop><stop offset="1" stop-color="#21CFE0"></stop></linearGradient><linearGradient id="paint2_linear_2141_34038" x1="48.3489" y1="48.9994" x2="33.4558" y2="31.4289" gradientUnits="userSpaceOnUse"><stop stop-color="#0073E6"></stop><stop offset="1" stop-color="#00299C"></stop></linearGradient><clipPath id="clip0_2141_34038"><rect width="83" height="83" fill="white" transform="translate(0.324219 0.13623)"></rect></clipPath></defs></svg>