<svg xmlns="http://www.w3.org/2000/svg" width="153" height="47" viewBox="0 0 153 47" fill="none"><path d="M104.342 31.2042C104.329 31.3998 104.301 31.6221 104.144 31.7342C104.037 31.8113 103.896 31.814 103.765 31.8138C103.185 31.8131 102.605 31.8124 102.025 31.8117C101.802 31.8115 101.504 31.7385 101.505 31.5098C101.52 29.0465 101.534 26.5832 101.549 24.1199C101.557 22.7655 101.564 21.4015 101.324 20.0698C101.197 19.3648 100.993 18.6547 100.568 18.0863C99.9463 17.255 98.9186 16.8288 97.9036 16.7256C96.8885 16.6224 95.8687 16.8042 94.864 16.9854C94.4847 17.0538 94.0097 17.2316 94.0099 17.6275C94.0122 22.1046 94.0144 26.5817 94.0167 31.0588C94.0168 31.2264 94.0142 31.4041 93.927 31.5457C93.7707 31.7999 93.4261 31.8256 93.1336 31.8238C92.5821 31.8203 92.0306 31.8169 91.4791 31.8134C91.3611 31.8127 91.2273 31.8048 91.1508 31.7125C91.088 31.6366 91.0849 31.5278 91.0849 31.4283C91.0846 23.1983 91.0843 14.9683 91.084 6.7383C91.084 6.54937 91.0938 6.33642 91.2305 6.21005C91.3187 6.12847 91.4414 6.10217 91.5579 6.07895C92.1446 5.962 92.7312 5.84504 93.3179 5.72809C93.4464 5.70247 93.5835 5.67757 93.7049 5.72768C93.9594 5.83265 93.9967 6.18083 93.9936 6.46265C93.9666 8.87753 93.9396 11.2924 93.9126 13.7073C93.909 14.0328 94.0509 14.4885 94.3586 14.4114C96.2536 13.9369 98.2702 13.6859 100.138 14.2628C102.006 14.8397 103.686 16.4053 103.946 18.3923C104.5 22.6344 104.633 26.9345 104.342 31.2042Z" fill="#097099"></path><path d="M64.072 17.1345C62.8686 17.189 61.6715 17.3881 60.5128 17.7263C60.4169 17.0457 60.3211 16.3652 60.2252 15.6846C60.2127 15.5953 60.2008 15.5004 60.2366 15.4181C60.2862 15.3037 60.4108 15.2484 60.5251 15.2051C62.6307 14.4083 64.9665 14.2675 67.1482 14.8059C67.7596 14.9568 68.3663 15.1632 68.8944 15.5141C69.872 16.1635 70.5017 17.2632 70.8246 18.4127C71.1474 19.5622 71.1944 20.772 71.2257 21.968C71.3038 24.9497 71.2977 27.9336 71.2074 30.9149C71.2043 31.0172 71.1978 31.1285 71.132 31.2053C71.0702 31.2773 70.9718 31.3004 70.8801 31.319C68.5007 31.8024 66.0582 31.9564 63.6391 31.7756C63.0021 31.7279 62.3615 31.6561 61.7529 31.4568C60.126 30.9239 58.8348 29.4286 58.5131 27.7049C58.1914 25.9811 58.8526 24.1009 60.1722 22.9869C61.4336 21.9222 63.1269 21.5929 64.7512 21.4277C65.6313 21.3382 66.5763 21.3002 67.3376 21.7627C67.6867 21.9748 68.1589 21.6732 68.2887 21.2783C68.4185 20.8834 68.3119 20.4523 68.2048 20.0503C68.0283 19.3875 67.84 18.7013 67.406 18.1788C66.624 17.2375 65.275 17.08 64.072 17.1345ZM64.4117 29.8118C65.3364 29.8107 66.2611 29.8096 67.1858 29.8085C67.5534 29.808 67.9907 29.7681 68.1716 29.4391C68.26 29.2783 68.262 29.0841 68.2618 28.8994C68.2598 27.5316 68.2578 26.1638 68.2559 24.796C68.2555 24.5545 68.2311 24.2677 68.0273 24.1475C67.9292 24.0897 67.8107 24.0863 67.6977 24.0844C66.8387 24.07 65.9798 24.0555 65.1209 24.041C64.3664 24.0283 63.5907 24.0191 62.8849 24.2935C61.8345 24.7019 61.0474 25.7897 61.0432 26.944C61.039 28.0984 61.8667 29.2223 62.9655 29.4611C63.1942 29.5108 63.4387 29.5283 63.6352 29.6586C63.86 29.8076 64.1443 29.8121 64.4117 29.8118Z" fill="#097099"></path><path d="M54.8022 29.4696C54.9149 29.948 55.0276 30.4264 55.1404 30.9048C55.1859 31.0981 55.2245 31.3247 55.0999 31.4768C55.0333 31.5579 54.9327 31.5993 54.836 31.6366C52.7019 32.46 50.3303 32.7596 48.1251 32.1665C45.9199 31.5734 43.9128 30.016 43.0238 27.8585C42.7616 27.2221 42.598 26.5471 42.4757 25.8675C42.1301 23.9481 42.1116 21.9421 42.6371 20.0664C43.1626 18.1906 44.2614 16.4524 45.8428 15.3716C48.1435 13.7989 51.1667 13.7822 53.8421 14.4917C54.2746 14.6065 54.7798 14.8246 54.8422 15.2793C54.9049 15.7359 54.4677 16.1124 54.4148 16.5702C54.3926 16.7622 54.44 16.9594 54.4028 17.1489C54.3655 17.3384 54.1849 17.5257 54.0087 17.4581C51.9672 16.6755 49.5235 16.3916 47.728 17.6603C45.8423 18.9927 45.2684 21.6257 45.4377 23.9714C45.5747 25.8707 46.2266 27.9165 47.8223 28.8844C48.9077 29.5428 50.2343 29.5846 51.4945 29.5662C52.465 29.5521 53.4759 29.502 54.3274 29.0232C54.5466 28.8999 54.7434 29.22 54.8022 29.4696Z" fill="#097099"></path><path d="M85.1077 17.5641C83.6382 16.8455 81.9633 16.5779 80.3509 16.8041C79.2878 16.9532 78.0843 17.5012 77.8998 18.5877C77.7846 19.2657 78.1291 19.957 78.6232 20.4215C79.1173 20.886 79.745 21.1664 80.36 21.4386C81.5381 21.96 82.7163 22.4814 83.8944 23.0028C85.446 23.6895 86.5674 25.3058 86.6935 27.0374C86.8196 28.769 85.9447 30.539 84.5099 31.4554C83.8408 31.8827 83.0761 32.1289 82.3043 32.2903C79.9206 32.7889 77.4223 32.506 75.1055 31.7441C74.9853 31.7046 74.8605 31.6606 74.7732 31.567C74.5942 31.3748 74.6427 31.0659 74.7031 30.8072C74.8564 30.1508 75.0097 29.4944 75.163 28.838C77.0531 29.6911 79.1763 29.9904 81.2201 29.692C82.1216 29.5603 83.1199 29.2225 83.4966 28.3705C83.8406 27.5925 83.5119 26.6404 82.9275 26.0326C82.343 25.4249 81.5515 25.0856 80.7823 24.7614C80.1585 24.4985 79.5348 24.2356 78.911 23.9727C78.0378 23.6047 77.1482 23.2265 76.4311 22.5958C74.7833 21.1466 74.429 18.3805 75.6558 16.5423C76.8568 14.7426 79.1558 14.0567 81.279 14.0675C82.8134 14.0753 84.346 14.3803 85.7724 14.9617C85.5509 15.8292 85.3293 16.6966 85.1077 17.5641Z" fill="#097099"></path><path d="M147.426 29.5115C148.529 29.4716 149.695 29.4114 150.612 28.7819C150.89 28.5911 151.169 29.0258 151.24 29.3616C151.418 30.2053 151.5 31.2907 150.776 31.7272C150.548 31.8644 150.279 31.904 150.017 31.9407C148.077 32.2135 146.098 32.4798 144.171 32.1234C142.37 31.7903 140.633 30.8746 139.501 29.3963C138.335 27.8738 137.889 25.8887 137.78 23.9544C137.634 21.3447 138.111 18.5586 139.792 16.5973C141.51 14.594 144.292 13.7572 146.871 14.0755C147.441 14.1459 148.009 14.2682 148.543 14.4852C150.237 15.1734 151.468 16.7802 152.08 18.5442C152.692 20.3082 152.751 22.2243 152.645 24.0939C148.892 24.0931 145.14 24.0922 141.388 24.0914C141.263 24.0914 141.13 24.0939 141.027 24.1661C140.82 24.3114 140.855 24.6309 140.917 24.8807C141.274 26.3207 141.823 27.8217 143.003 28.6797C144.25 29.5863 145.9 29.5667 147.426 29.5115ZM141.262 19.7487C141.159 20.172 141.056 20.5954 140.953 21.0187C143.645 21.1001 146.339 21.1164 149.032 21.0676C149.123 21.0659 149.219 21.0629 149.297 21.0155C149.451 20.9224 149.475 20.7061 149.471 20.5225C149.443 19.3604 148.982 18.2145 148.202 17.3727C148.007 17.1624 147.793 16.9698 147.552 16.8173C147.261 16.6326 146.936 16.5092 146.603 16.4265C145.481 16.1477 144.255 16.3427 143.267 16.9571C142.279 17.5714 141.542 18.5976 141.262 19.7487Z" fill="#097099"></path><path d="M114.895 17.1275C113.716 17.1065 112.534 17.2723 111.404 17.6172C111.062 17.7216 110.806 17.3003 110.684 16.9554C110.515 16.4741 110.352 15.9134 110.609 15.4755C110.859 15.0515 111.394 14.9312 111.87 14.8526C113.307 14.6152 114.767 14.3976 116.213 14.5638C117.66 14.73 119.113 15.3234 120.053 16.4655C121.377 18.0739 121.438 20.3759 121.433 22.4828C121.427 25.2202 121.421 27.9576 121.415 30.695C121.414 30.8931 121.401 31.119 121.252 31.2439C121.168 31.3143 121.056 31.3368 120.949 31.3565C119.024 31.7113 117.066 31.8831 115.11 31.8691C113.741 31.8593 112.322 31.744 111.122 31.0657C109.716 30.2709 108.754 28.703 108.663 27.0566C108.572 25.4102 109.353 23.7399 110.662 22.7857C111.175 22.4118 111.755 22.1455 112.351 21.9402C114.23 21.2929 116.301 21.2454 118.206 21.806C118.562 21.911 118.702 21.3451 118.651 20.9674C118.504 19.8833 118.312 18.7081 117.53 17.9654C116.839 17.3094 115.836 17.1442 114.895 17.1275ZM118.423 29.3586C118.49 29.2087 118.492 29.0377 118.493 28.8725C118.5 27.4583 118.495 26.044 118.477 24.6299C118.474 24.45 118.459 24.2427 118.316 24.1376C118.223 24.0681 118.098 24.0646 117.983 24.0637C117.046 24.0567 116.11 24.0498 115.174 24.0428C114.564 24.0382 113.944 24.035 113.359 24.2095C112.258 24.5377 111.356 25.5641 111.255 26.7381C111.155 27.912 111.935 29.1329 113.05 29.407C113.324 29.4745 113.619 29.4918 113.859 29.6433C114.121 29.8088 114.447 29.814 114.755 29.8142C115.601 29.8148 116.446 29.8153 117.292 29.8159C117.721 29.8162 118.243 29.7594 118.423 29.3586Z" fill="#097099"></path><path d="M134.284 14.1492C134.555 14.1905 134.841 14.2466 135.041 14.4379C135.241 14.6292 135.299 15.0021 135.087 15.1795C134.809 15.4129 134.881 15.8552 134.903 16.2237C134.925 16.5922 134.731 17.0796 134.378 17.0147C132.991 16.7603 131.576 16.6701 130.17 16.7467C129.925 16.76 129.672 16.7808 129.456 16.9002C128.9 17.2072 128.832 17.984 128.833 18.6327C128.845 22.8312 128.856 27.0298 128.867 31.2284C128.867 31.4067 128.857 31.6103 128.722 31.7229C128.619 31.809 128.475 31.8133 128.343 31.8137C127.791 31.8151 127.239 31.8165 126.687 31.818C126.574 31.8183 126.452 31.8156 126.362 31.745C126.237 31.6463 126.226 31.4597 126.226 31.2973C126.226 26.0202 126.226 20.7431 126.226 15.466C126.226 15.3167 126.229 15.1582 126.307 15.0322C126.401 14.8807 126.58 14.814 126.747 14.7601C129.171 13.9757 131.77 13.7651 134.284 14.1492Z" fill="#097099"></path><path d="M11.0212 46.0872C10.6923 46.0533 10.3046 45.9699 10.1785 45.6559C10.105 45.4728 10.1476 45.2648 10.1912 45.0719C10.3275 44.468 10.4638 43.864 10.6002 43.2601C10.6879 42.8713 10.9574 42.3733 11.3198 42.5164C15.8783 44.3165 21.4317 43.041 24.8113 39.4177C28.1908 35.7944 29.1968 30.0375 27.2551 25.4318C25.3135 20.8261 20.539 17.6439 15.656 17.7009C14.9679 17.709 14.305 17.1991 14.1183 16.5183C13.9316 15.8375 14.238 15.0469 14.8289 14.6844C15.299 14.3959 15.8766 14.3778 16.4238 14.397C21.1688 14.5642 25.7844 17.077 28.5849 21.0177C31.3855 24.9585 32.3106 30.2423 31.0223 34.9395C29.7341 39.6366 26.2604 43.6458 21.8697 45.5028C21.3486 45.7232 20.8143 45.9153 20.2635 46.0376C19.3696 46.236 18.4478 46.2478 17.5334 46.2587C15.3609 46.2847 13.1829 46.3105 11.0212 46.0872Z" fill="#097099"></path><path d="M21.3403 1.37122C21.3943 1.56733 21.3374 1.77556 21.2808 1.97088C21.1184 2.53092 20.9561 3.09096 20.7938 3.651C20.7185 3.91075 20.524 4.23615 20.2789 4.13606C15.8789 2.33873 10.5057 3.40484 7.07259 6.75634C3.63949 10.1078 2.32689 15.5687 3.84649 20.1779C5.36608 24.7872 9.63805 28.3028 14.3461 28.8185C14.9263 28.8821 15.5181 28.9053 16.072 29.094C16.6258 29.2827 17.1517 29.6724 17.3401 30.24C17.5067 30.7424 17.3675 31.3376 16.9968 31.7071C16.5105 32.1921 15.7613 32.2409 15.0841 32.2161C9.11206 31.9974 3.43215 27.946 1.14303 22.272C-1.14609 16.5981 0.0775479 9.60395 4.14639 5.10524C8.21524 0.60654 14.9125 -1.15703 20.5845 0.776632C20.8986 0.88371 21.2502 1.04391 21.3403 1.37122Z" fill="#097099"></path></svg>